<svg id="Capa_1" enable-background="new 0 0 512 512" height="512" viewBox="0 0 512 512" width="512" xmlns="http://www.w3.org/2000/svg"><g><g><path d="m512 256c0 73.574-31.048 139.899-80.763 186.603l-142.408-8.97c-21.729-1.362-43.53.973-64.471 6.922l-107.284 30.485c-70.451-45.599-117.074-124.887-117.074-215.04 0-46.08 12.186-89.344 33.536-126.72.051-.102.102-.205.154-.256 44.083-77.107 127.129-129.024 222.31-129.024s178.227 51.917 222.31 129.024c.052.051.103.154.154.256 21.35 37.376 33.536 80.64 33.536 126.72z" fill="#e682fa"/><g><path d="m512 256c0 73.574-31.048 139.909-80.763 186.603l-142.408-8.97c-21.729-1.362-43.53.973-64.471 6.922l-107.284 30.485c-70.451-45.599-117.074-124.887-117.074-215.04 0-46.08 12.186-89.344 33.536-126.72.051-.102.102-.205.154-.256 25.395 44.39 63.693 80.435 109.824 103.014 5.222 2.56 10.598 4.966 16.026 7.168 29.03 11.827 60.723 18.483 93.901 18.79h5.12c33.178-.307 64.87-6.963 93.901-18.79 5.427-2.202 10.803-4.608 16.025-7.168 46.08-22.579 84.429-58.624 109.824-103.014.052.051.103.154.154.256 21.349 37.376 33.535 80.64 33.535 126.72z" fill="#c667ea"/></g></g><g><g><g><path d="m165.908 495.677c-17.244-6.472-33.597-14.766-48.835-24.637 1.219-40.653 19.907-76.923 48.835-101.571l8.325 13.312c10.319 16.505 15.6 35.056 15.972 53.612.447 22.215-8.586 43.574-24.297 59.284z" fill="#fff"/><path d="m431.237 442.603c-24.381 22.907-53.248 41.093-85.146 53.084l-28.207-28.207c-13.984-13.983-16.093-36.07-4.676-52.218.082-.116.165-.232.248-.348l32.635-45.435 18.79 18.79 18.79-18.79h35.379l9.78 25.794c6.073 16.037 6.462 32.431 2.407 47.33z" fill="#9dd6ed"/><path d="m270.694 509.071-2.642 2.642c-3.993.195-8.007.287-12.052.287-29.46 0-57.764-4.977-84.111-14.152-2.007-.696-3.994-1.413-5.98-2.171v-126.208c6.308-5.376 13.087-10.189 20.296-14.387 2.058-1.167 4.106-2.294 6.216-3.369l63.579 60.457 13.015 12.032c24.525 22.702 25.293 61.225 1.679 84.869z" fill="#243047"/><path d="m346.091 369.48v126.208c-24.453 9.195-50.688 14.756-78.039 16.026-.44.021-.881.041-1.321.051-3.553.163-7.127.235-10.731.235v-99.83l63.488-60.498c2.15 1.075 4.209 2.191 6.267 3.41h.041c7.219 4.199 13.998 9.011 20.295 14.398z" fill="#1b2535"/><path d="m267.059 336.712v175.053c-3.553.164-7.127.236-10.732.236h-.327v-175.699h.328c3.614 0 7.198.143 10.731.41z" fill="#384c81"/><path d="m261.326 403.716-5.326 8.456-.514-.309-.15-.14-43.775-41.748v-26.396c13.95-4.719 28.881-7.279 44.439-7.279 16.445 18.828 18.594 46.205 5.326 67.416z" fill="#f4a57b"/><path d="m300.448 343.57v26.247l-44.448 42.355v-75.872c15.548.001 30.498 2.542 44.448 7.27z" fill="#f2926a"/></g><path d="" fill="#fff"/><path d="m256 412.17-.51-.31-29.15-17.53-41.21.22 7.29-42.83c6.12-3.17 12.52-5.9 19.14-8.14z" fill="#fff"/><path d="m326.89 394.5-41.23-.17-29.66 17.84 44.45-68.6c6.59 2.22 12.95 4.93 19.04 8.1z" fill="#9dd6ed"/></g><path d="m259.868 343.477-3.859 4.634-.009.01h-.327c-18.781-.094-36.301-5.606-50.971-15.137-14.669-9.484-26.536-22.939-34.105-38.823 0 0-.047.047-.047.14 0-.047-.047-.093-.047-.14-3.224-6.774-5.653-14.062-7.195-21.631-22.519-2.009-40.179-20.93-40.085-44.009.047-13.362 10.886-24.154 24.247-24.107 7.615 0 13.829 6.167 13.922 13.782v.187l32.797-77.787v-.047c16.538-14.249 38.076-22.892 61.669-22.892h.142v-.047l20.668 36.226c34.526 60.519 27.835 136.129-16.8 189.641z" fill="#f7bda3"/><path d="m388.682 228.52c.093 23.079-17.567 42.047-40.132 44.009-1.532 7.587-3.953 14.81-7.214 21.612h.084c-15.174 31.9-47.7 53.932-85.336 53.97h-.075c-.009 0-.009.01-.009.01v-230.512c23.546 0 45.13 8.643 61.669 22.939l32.797 77.834c0-7.709 6.26-13.969 13.969-13.969 13.361-.047 24.2 10.745 24.247 24.107z" fill="#f4a57b"/><path d="m255.918 277.232c-4.227-.014-7.643-3.453-7.628-7.68l.111-22.638c.014-4.227 3.452-7.642 7.68-7.628s7.643 3.452 7.629 7.68l-.112 22.638c-.014 4.227-3.452 7.642-7.68 7.628z" fill="#e47971"/><path d="m237.903 251.295c-.021 6.428-5.25 11.621-11.679 11.6-6.428-.022-11.621-5.251-11.6-11.679.022-6.428 5.251-11.622 11.679-11.6 6.428.021 11.622 5.251 11.6 11.679z" fill="#243047"/><path d="m297.217 251.496c-.022 6.428-5.251 11.621-11.679 11.6-6.428-.022-11.621-5.251-11.6-11.679.022-6.429 5.251-11.622 11.679-11.6s11.622 5.25 11.6 11.679z" fill="#1b2535"/><path d="m242.716 228.012c-2.676-6.387-8.976-10.883-16.336-10.908-7.36-.026-13.69 4.428-16.41 10.797z" fill="#243047"/><path d="m302.029 228.213c-2.676-6.387-8.975-10.884-16.336-10.908-7.36-.025-13.691 4.428-16.41 10.797z" fill="#1b2535"/><path d="m194.191 140.548v49.216c0 7.256-2.882 14.214-8.012 19.344-5.131 5.13-8.012 12.088-8.012 19.344 0 2.473-2.991 3.712-4.74 1.963l-12.033-12.033v-6.307c0-28.593 12.708-54.195 32.797-71.527z" fill="#243047"/><path d="m317.69 140.548v49.216c0 7.256 2.882 14.214 8.012 19.344 5.13 5.13 8.012 12.088 8.012 19.344 0 2.473 2.99 3.712 4.739 1.963l12.033-12.033v-6.307c.001-28.593-12.707-54.195-32.796-71.527z" fill="#1b2535"/><path d="m257.392 300.981-1.392.747c-1.944 2.196-4.812 3.719-8.653 3.897-.42.018-.841.028-1.271.028-19.444 0-37.964-7.615-51.746-20.977-1.532-1.486-.449-4.102 1.691-4.102h50.503c4.214 0 7.372 1.663 9.475 4.111 7.392 2.486 8.251 12.587 1.393 16.296z" fill="#243047"/><path d="m278.11 166.94-22.11 20.41h-73.172l-21.998-44.15-6.01-71.71h101.18l24.86 26.96c18.14 19.68 16.91 50.33-2.75 68.49z" fill="#243047"/><path d="m357.57 71.49-6.4 71.71-25.18 44.15h-69.99v-115.86z" fill="#1b2535"/><path d="m270.352 178.951-14.352 8.4h-91.205l-3.961-44.149h95.166l14.352 8.4c10.446 6.12 10.446 21.229 0 27.349z" fill="#fd4b4a"/><path d="m351.167 143.202-3.962 44.149h-91.205v-44.149z" fill="#e72669"/><path d="m263.45 196.95-7.45 3.38c-41.21 0-82.42-5.11-122.67-15.31l-9.33-2.37 4.97-19.61 4.36 1.1c40.25 10.21 81.46 15.33 122.67 15.33l7.62 3.7c5.8 2.82 5.69 11.11-.17 13.78z" fill="#243047"/><path d="m388 182.65-9.33 2.37c-40.25 10.2-81.46 15.31-122.67 15.31v-20.86c41.21 0 82.42-5.12 122.67-15.33l4.36-1.1z" fill="#1b2535"/><path d="m317.669 284.676c-13.782 13.362-32.302 20.977-51.746 20.977-.43 0-.85-.009-1.271-.028-3.841-.178-6.709-1.701-8.652-3.897v-17.043c2.102-2.448 5.26-4.111 9.475-4.111h50.503c2.139 0 3.223 2.616 1.691 4.102z" fill="#1b2535"/><g><path d="m379.992 309.328 36.387 100.924c-1.178 3.486-3.825 5.977-6.963 7.109s-6.766.903-9.897-1.03l-36.389-100.924c.836-3.808 3.518-6.525 6.753-7.692 3.235-1.166 7.035-.786 10.109 1.613z" fill="#21284f"/><path d="m379.992 309.328 36.387 100.924c-1.178 3.486-3.825 5.977-6.963 7.109l-39.532-109.645c3.234-1.167 7.034-.787 10.108 1.612z" fill="#1b2535"/><path d="m379.99 309.33-8.43 3.04-8.43 3.04-7.94-22.01 8.44-3.04 8.43-3.04z" fill="#fff"/><path d="m402.954 412.598h17.923v23.395h-17.923z" fill="#fff" transform="matrix(.941 -.339 .339 .941 -119.506 164.888)"/><g fill="#dff0f8"><path d="m367.329 288.147h8.961v23.395h-8.961z" transform="matrix(.941 -.339 .339 .941 -79.671 143.912)"/><path d="m411.649 411.078h8.961v23.395h-8.961z" transform="matrix(.941 -.339 .339 .941 -118.742 166.231)"/></g></g><ellipse cx="392.185" cy="363.164" fill="#ffc0a4" rx="26.864" ry="26.863" transform="matrix(.98 -.201 .201 .98 -65.011 86.272)"/><g fill="#ffbf03"><path d="m247.451 431.569c0 3.536-2.867 6.403-6.403 6.403s-6.403-2.867-6.403-6.403 2.867-6.403 6.403-6.403 6.403 2.867 6.403 6.403z"/><path d="m247.451 460.984c0 3.536-2.867 6.403-6.403 6.403s-6.403-2.867-6.403-6.403 2.867-6.403 6.403-6.403 6.403 2.867 6.403 6.403z"/><path d="m247.451 492.773c0 3.536-2.867 6.403-6.403 6.403s-6.403-2.867-6.403-6.403 2.867-6.403 6.403-6.403 6.403 2.867 6.403 6.403z"/></g><g><g><path d="m425.997 266.045h-1.52c-6.73 0-12.186-5.456-12.186-12.186v-1.519h-8.686v1.519c0 6.73-5.456 12.186-12.187 12.186h-1.519v8.687h1.519c6.731 0 12.187 5.456 12.187 12.186v1.519h8.686v-1.519c0-6.73 5.456-12.186 12.186-12.186h1.52z" fill="#fff"/></g></g><g><g><path d="m451.681 328.407h-.875c-3.875 0-7.016-3.141-7.016-7.016v-.875h-5.002v.875c0 3.875-3.142 7.016-7.017 7.016h-.875v5.002h.875c3.875 0 7.017 3.142 7.017 7.016v.875h5.002v-.875c0-3.875 3.142-7.016 7.016-7.016h.875z" fill="#fff"/></g></g></g></g></svg>